<svg height="646" viewBox="0 0 1005 646" width="1005" xmlns="http://www.w3.org/2000/svg"><g fill="none" fill-rule="evenodd"><g transform="translate(0 1)"><path d="m51.9403084 87.6883389 1.325669-1.6480893c21.8286846-27.1085718 48.0530086-48.0842537 77.9154466-62.3577059 29.862438-14.27345209 62.605465-21.55501025 97.302109-21.55501025h2.113096v230.82239655z" fill="#a2a1a1"/><path d="m228.483533 4.24507849v224.25001651l-173.5729287-141.1263856c43.4779554-53.9374678 104.4985977-83.12363091 173.5729287-83.12363091zm4.23616-4.24507849h-4.23616c-35.015602 0-68.007815 7.32151184-98.219113 21.7647671-30.211299 14.4432553-56.6150362 35.6187056-78.6430695 62.9270458l-2.6613054 3.2961786 3.2792864 2.6669081 173.5729285 141.1363744 6.907433 5.62348z" fill="#fff" fill-rule="nonzero"/><path d="m19.4365 313.296781c-31.6167067-78.568912-19.28698846-161.402879 33.8294774-227.2565314l1.3356364-1.6580777 178.0084372 144.7322051-212.3761561 86.150122z" fill="#6f6f6e"/><path d="m54.9106043 87.3687094 173.5729287 141.1263856-207.0834481 84.002612c-31.36752079-78.079479-19.26705362-159.674882 33.5105194-225.1289976zm-.6279484-5.9930519-2.6613054 3.3261438c-26.7027608 33.1615547-43.3184764 70.1187077-49.22916589 109.8726197-5.91068948 39.753911-.83726461 79.90736 15.08073049 119.511445l1.5848223 3.945426 3.9371372-1.598147 207.0734804-84.002612 6.658247-2.696874-5.571796-4.534742-173.5729289-141.1263861-3.2992212-2.6768966z" fill="#fff" fill-rule="nonzero"/><path d="m228.483533 454.872645c-46.418349 0-90.235197-13.064853-126.716013-37.766216-36.4808149-24.701362-64.8880072-60.599744-82.33102-103.809648l-.7874274-1.997684 207.7113964-84.232346v-224.93921755h2.123064c59.853862.05560427 117.234074 23.93653925 159.516956 66.38898525 42.282881 42.4524463 66.004629 99.9987083 65.946444 159.9785763.115659 124.901252-100.824557 226.250733-225.4634 226.37755z" fill="#1d1d1b"/><path d="m228.483533 4.24507849c123.366954 0 223.340336 100.40359751 223.340336 224.25001651s-99.973382 224.250017-223.340336 224.250017c-93.693897 0-171.9582041-52.938626-207.0834481-140.247405l207.0834481-84.002612zm0-4.24507849h-4.216225v225.628419l-204.4321106 82.903885-3.9271697 1.598148 1.5848223 3.925449c17.5526546 43.609441 46.2887723 79.847429 83.10848 104.778525 36.819709 24.931096 81.055189 38.125799 127.902138 38.125799 60.413068-.042357 118.333372-24.140036 161.011661-66.988729 42.67829-42.848692 66.616313-100.936175 66.5449-161.476401.140361-60.567516-23.77727-118.701231-66.473952-161.5702555s-100.662112-66.94888702-161.102544-66.9248395z" fill="#fff" fill-rule="nonzero"/></g><g fill="#f4e84a" font-family="Rubik-Black, Rubik" font-size="41.112074" font-weight="700"><text><tspan x="317.732776" y="292.55226">69%</tspan></text><text><tspan x="42.022332" y="237.082105">17%</tspan></text><text><tspan x="129.624272" y="106.052941">14%</tspan></text></g><g transform="translate(548)"><path d="m19.2202482 312.768171c-22.43957568-55.533465-21.8968715-117.706972 1.5086994-172.840261 23.4055709-55.1332883 67.7563102-98.7091003 123.2935654-121.1392933 26.836932-11.03082232 55.598618-16.61781965 84.613563-16.43630183h2.103129v227.25753813l-210.7315293 85.121903z" fill="#a2a1a1"/><path d="m228.636076 4.46541128v223.70913072l-207.4522429 83.806201c-46.2887723-114.545773 9.0603992-244.9298018 123.5962049-291.218574 26.595958-10.93526446 55.100287-16.47485532 83.856038-16.29675772zm4.236161-4.23616025h-4.236161c-29.28571-.18444115-58.315717 5.45689433-85.40099 16.59578077-56.0958038 22.5953742-100.9002576 66.5757076-124.5330365 122.2424112-23.63277896 55.666703-24.15279949 118.447579-1.4453861 174.498123l1.5848223 3.927169 3.9271697-1.594789 207.4522436-83.796234 2.651338-1.066515z" fill="#fff" fill-rule="nonzero"/><path d="m227.898486 454.136314c-92.059238 0-173.971626-55.488716-208.6782378-141.368143l-.7973948-1.993487 211.6385666-85.490698 59.076992 220.439812-2.043324.548209c-19.303907 5.196257-39.205571 7.840206-59.196602 7.864307z" fill="#6f6f6e"/><path d="m228.636076 228.174542 57.92077 216.084043c-19.126263 5.139457-38.843652 7.7499-58.648393 7.764633-89.228486 0-171.718985-53.455359-206.7146525-140.052442l207.4522435-83.796234zm2.860654-5.731275-4.445476 1.824041-207.4522432 83.776298-3.9371372 1.584823 1.5947898 3.937137c34.4247239 86.166455 117.8532476 142.682934 210.6418226 142.693812 20.175178-.016416 40.261184-2.677125 59.744811-7.914144l4.096616-1.096418-1.096418-4.096616-57.910803-216.074076-1.245929-4.634857z" fill="#fff" fill-rule="nonzero"/><path d="m226.52298 228.453631v-226.10131965l2.113096.00000352c59.899603-.01057509 117.349638 23.77635463 159.709727 66.12709703 42.360089 42.3507421 66.159695 99.7955271 66.162338 159.6951301 0 51.3921-15.828288 99.16602-45.760498 138.168597-29.93221 39.002576-72.004757 66.652244-121.652555 79.95877l-1.993487.548209z" fill="#1d1d1b"/><path d="m228.636076 4.46541128c123.596205 0 223.749001 100.15279572 223.749001 223.70913072 0 103.741073-65.575761 189.221803-165.828231 216.084043l-57.910802-216.084043v-223.70913072zm.009968-4.23616025-4.236161-.00008741v228.50355538l.139545.538241 57.910802 216.084043 1.096418 4.086649 4.096616-1.096418c50.1063-13.416169 92.567577-41.324989 122.788843-80.736231 30.221266-39.411241 46.17913-87.524054 46.17913-139.434461.042364-60.474736-23.965103-118.484175-66.730949-161.2425428-42.765846-42.7583675-100.779483-66.75568801-161.254212-66.70274817z" fill="#fff" fill-rule="nonzero"/></g><text fill="#f4e84a" font-family="Rubik-Black, Rubik" font-size="41.112074" font-weight="700"><tspan x="843.064107" y="237.248215">46%</tspan></text><text fill="#f4e84a" font-family="Rubik-Black, Rubik" font-size="41.112074" font-weight="700"><tspan x="661.402724" y="381.659567">23%</tspan></text><text fill="#f4e84a" font-family="Rubik-Black, Rubik" font-size="41.112074" font-weight="700"><tspan x="616.760826" y="189.336037">31%</tspan></text><rect fill="#0048ff" height="307.011682" rx="9.468235" transform="matrix(0 1 -1 0 1294.386357 -259.374675)" width="27.761032" x="763" y="364"/><rect fill="#fa3f47" height="307.011682" rx="9.468235" transform="matrix(0 1 -1 0 746.386357 288.625325)" width="27.761032" x="215" y="364"/><g font-size="28" transform="translate(629 535)"><text fill="#1d1d1b" font-family="Roboto-Medium, Roboto" font-weight="400"><tspan x="0" y="68">een niet-westerse </tspan><tspan x="0" y="105">migratieachtergrond</tspan></text><text fill="#000" font-family="Roboto-Medium, Roboto" font-weight="400"><tspan x="197" y="29">met</tspan></text><text fill="#1d1d1b" font-family="Rubik-Bold, Rubik" font-weight="bold"><tspan x="0" y="30">Nederlanders</tspan></text></g><g font-size="28" transform="translate(75 535)"><text fill="#000" font-family="Roboto-Medium, Roboto" font-weight="400"><tspan x="197" y="29">zonder</tspan></text><text fill="#000" font-family="Roboto-Medium, Roboto" font-weight="400"><tspan x="1" y="66">migratieachtergrond</tspan></text><text fill="#1d1d1b" font-family="Rubik-Bold, Rubik" font-weight="bold"><tspan x="0" y="30">Nederlanders</tspan></text></g><text fill="#000" font-family="Roboto-Light, Roboto" font-size="30" font-weight="300"><tspan x="657.549316" y="490">386 respondenten</tspan></text><text fill="#000" font-family="Roboto-Light, Roboto" font-size="30" font-weight="300"><tspan x="108.549316" y="490">235 respondenten</tspan></text></g></svg>