<svg xmlns="http://www.w3.org/2000/svg" viewBox="0 0 968.62 649.19"><defs><style>.cls-1{fill:#a2a1a1;}.cls-2{fill:#fff;}.cls-3{fill:#6f6f6e;}.cls-12,.cls-15,.cls-4{fill:#1d1d1b;}.cls-5,.cls-6{font-size:39.6px;fill:#f4e84a;}.cls-12,.cls-15,.cls-5,.cls-6{font-family:Rubik-Bold, Rubik;font-weight:700;}.cls-6{letter-spacing:-0.01em;}.cls-7{letter-spacing:0em;}.cls-8{fill:#0048ff;}.cls-9{fill:#fa3f47;}.cls-10{font-size:20px;font-family:Roboto-Light, Roboto;font-weight:300;}.cls-11{letter-spacing:-0.01em;}.cls-12,.cls-15{font-size:28px;}.cls-12{letter-spacing:-0.02em;}.cls-13,.cls-14,.cls-16{font-size:25px;}.cls-13{letter-spacing:-0.02em;}.cls-14,.cls-16{font-family:Roboto-Medium, Roboto;font-weight:500;}.cls-14{letter-spacing:-0.02em;}.cls-15{letter-spacing:-0.02em;}.cls-16{letter-spacing:-0.02em;}</style></defs><title>Indicator_Beleving_Vis2</title><g id="Laag_2" data-name="Laag 2"><g id="Laag_1-2" data-name="Laag 1"><path class="cls-1" d="M52.11,87.79l1.33-1.65C75.34,59,101.65,38,131.61,23.71S194.42,2.13,229.23,2.13h2.12V233.22Z"/><path class="cls-2" d="M229.23,4.25V228.76L55.09,87.47c43.62-54,104.84-83.22,174.14-83.22M233.48,0h-4.25C194.1,0,161,7.33,130.69,21.79s-56.8,35.66-78.9,63l-2.67,3.3,3.29,2.67L226.55,232.06l6.93,5.63V0Z"/><path class="cls-3" d="M19.5,313.66C-12.22,235,.15,152.07,53.44,86.14l1.34-1.66,178.59,144.9L20.3,315.63Z"/><path class="cls-2" d="M55.09,87.47,229.23,228.76,21.47,312.86C-10,234.69,2.14,153,55.09,87.47m-.63-6L51.79,84.8C25,118,8.33,155,2.4,194.8s-.84,80,15.13,119.65l1.59,3.95,3.95-1.6,207.75-84.1,6.68-2.7-5.59-4.54L57.77,84.17l-3.31-2.68Z"/><path class="cls-4" d="M229.23,455.4c-46.57,0-90.53-13.08-127.13-37.81S37,356.92,19.5,313.66l-.79-2L227.1,227.33V2.13h2.13a226.41,226.41,0,0,1,226.2,226.63A226.43,226.43,0,0,1,229.23,455.4Z"/><path class="cls-2" d="M229.23,4.25C353,4.25,453.3,104.77,453.3,228.76S353,453.27,229.23,453.27c-94,0-172.52-53-207.76-140.41l207.76-84.1V4.25m0-4.25H225V225.89l-205.1,83-3.94,1.6,1.59,3.93c17.61,43.66,46.44,79.94,83.38,104.9s81.32,38.17,128.32,38.17A228.46,228.46,0,0,0,457.55,228.76,228.23,228.23,0,0,0,229.23,0Z"/><text class="cls-5" transform="translate(307.01 282.19)">69%</text><text class="cls-5" transform="translate(41.44 228.76)">17%</text><text class="cls-5" transform="translate(125.82 102.55)">14%</text><path class="cls-1" d="M529.79,313.79A226.55,226.55,0,0,1,655,18.85,219.68,219.68,0,0,1,739.89,2.36H742v228L530.58,315.76Z"/><path class="cls-2" d="M739.89,4.48V228.92L531.76,313c-46.44-114.92,9.09-245.73,124-292.17A217.69,217.69,0,0,1,739.89,4.48M744.14.23h-4.25a221.6,221.6,0,0,0-85.68,16.65A228.47,228.47,0,0,0,527.82,314.59l1.59,3.94,3.94-1.6,208.13-84.07,2.66-1.07V.23Z"/><path class="cls-3" d="M739.15,455.62c-92.36,0-174.54-55.67-209.36-141.83l-.8-2,212.33-85.77,59.27,221.16-2.05.55A229.55,229.55,0,0,1,739.15,455.62Z"/><path class="cls-2" d="M739.89,228.92,798,445.71a227.39,227.39,0,0,1-58.84,7.79c-89.52,0-172.28-53.63-207.39-140.51l208.13-84.07m2.86-5.75L738.3,225,530.17,309.05l-3.95,1.59,1.6,3.95A227.6,227.6,0,0,0,739.15,457.75a231.64,231.64,0,0,0,59.94-7.94l4.11-1.1-1.1-4.11L744,227.82l-1.25-4.65Z"/><path class="cls-4" d="M737.77,229.2V2.36h2.12A226.57,226.57,0,0,1,966.5,228.92c0,51.56-15.88,99.49-45.91,138.62s-72.24,66.87-122.05,80.22l-2,.55Z"/><path class="cls-2" d="M739.89,4.48c124,0,224.48,100.48,224.48,224.44C964.37,333,898.58,418.76,798,445.71l-58.1-216.79V4.48m0-4.25h-4.25V229.48l.14.54,58.1,216.79,1.1,4.1,4.11-1.1c50.27-13.46,92.87-41.46,123.19-81S968.62,281,968.62,228.92A228.53,228.53,0,0,0,739.89.23Z"/><text class="cls-5" transform="translate(813.02 228.92)">46%</text><text class="cls-5" transform="translate(638.04 368.02)">23%</text><text class="cls-6" transform="translate(595.04 182.77)">3<tspan class="cls-7" x="25.82" y="0">1%</tspan></text><rect class="cls-8" x="726.49" y="382.16" width="26.74" height="295.72" rx="9.12" transform="translate(1269.88 -209.85) rotate(90)"/><rect class="cls-9" x="215.42" y="382.16" width="26.74" height="295.72" rx="9.12" transform="translate(758.81 301.23) rotate(90)"/><text class="cls-10" transform="translate(663.8 501.08)">386 <tspan class="cls-11" x="38.12" y="0">r</tspan><tspan x="44.66" y="0">espondenten</tspan></text><text class="cls-12" transform="translate(80.93 582.42) scale(0.99 1)">Nederlanders<tspan class="cls-13" x="184.35" y="0"> </tspan><tspan class="cls-14" x="189.17" y="0">zonder </tspan><tspan class="cls-14"><tspan x="0" y="30">migratieachtergrond</tspan></tspan></text><text class="cls-15" transform="translate(592 582.42)">Nederlanders <tspan class="cls-16" x="189.75" y="0">met een </tspan><tspan class="cls-16"><tspan x="0" y="30">niet-Westerse </tspan><tspan x="0" y="60">migratieachtergrond</tspan></tspan></text><text class="cls-10" transform="translate(149.47 507.25)">235 <tspan class="cls-11" x="38.12" y="0">r</tspan><tspan x="44.66" y="0">espondenten</tspan></text></g></g></svg>