<svg xmlns="http://www.w3.org/2000/svg" viewBox="0 0 975.9 567.59"><defs><style>.cls-1{fill:none;stroke:#1d1d1b;stroke-miterlimit:10;stroke-width:2.83px;}.cls-2,.cls-9{font-size:19.29px;}.cls-2,.cls-3,.cls-9{fill:#1d1d1b;}.cls-13,.cls-14,.cls-2{font-family:Roboto-Medium, Roboto;font-weight:500;}.cls-3{font-size:25px;}.cls-12,.cls-3,.cls-9{font-family:Rubik-Bold, Rubik;font-weight:700;}.cls-4{letter-spacing:0em;}.cls-5{letter-spacing:-0.02em;}.cls-6{letter-spacing:-0.02em;}.cls-7{fill:#fa3f47;}.cls-8{fill:#0048ff;}.cls-10{letter-spacing:0em;}.cls-11{letter-spacing:0em;}.cls-12{font-size:28px;}.cls-13,.cls-14{font-size:26px;}.cls-14{letter-spacing:-0.01em;}.cls-15{letter-spacing:-0.01em;}.cls-16{letter-spacing:-0.01em;}.cls-17{letter-spacing:-0.02em;}.cls-18{letter-spacing:-0.02em;}.cls-19{font-size:23px;font-family:Roboto-Light, Roboto;font-weight:300;}.cls-20{letter-spacing:-0.05em;}.cls-21{letter-spacing:-0.05em;}.cls-22{letter-spacing:-0.01em;}</style></defs><title>Indicator_Uitkomst_Vis1</title><g id="Laag_2" data-name="Laag 2"><g id="Laag_1-2" data-name="Laag 1"><polyline class="cls-1" points="64.48 2.03 64.48 360.09 69.1 360.09 974.37 360.09"/><text class="cls-2" transform="translate(10.54 326.14)">10%</text><text class="cls-2" transform="translate(10.54 291.7)">20%</text><text class="cls-2" transform="translate(10.54 257.27)">30%</text><text class="cls-2" transform="translate(10.54 222.82)">40%</text><text class="cls-2" transform="translate(10.54 188.44)">50%</text><text class="cls-2" transform="translate(10.54 154.05)">60%</text><text class="cls-2" transform="translate(10.54 119.66)">70%</text><text class="cls-2" transform="translate(10.54 85.28)">80%</text><text class="cls-2" transform="translate(10.54 50.89)">90%</text><text class="cls-2" transform="translate(0 16.5)">100%</text><text class="cls-2" transform="translate(22.33 357.75)">0%</text><text class="cls-3" transform="translate(102.55 406.44)">Ni<tspan class="cls-4" x="25.27" y="0">e</tspan><tspan x="40.17" y="0">ts</tspan></text><text class="cls-3" transform="translate(240.44 406.44)"><tspan class="cls-5">W</tspan><tspan x="20.33" y="0">aarschuwing</tspan></text><text class="cls-3" transform="translate(466.29 406.44)">Be<tspan class="cls-6" x="32.6" y="0">k</tspan><tspan x="46.8" y="0">euring</tspan></text><text class="cls-3" transform="translate(880.7 410.3)">Anders</text><rect class="cls-7" x="88.69" y="229.18" width="45" height="128.2"/><rect class="cls-8" x="135.8" y="232.78" width="45" height="124.6"/><rect class="cls-8" x="334.19" y="261.26" width="45" height="96.12"/><rect class="cls-7" x="287.08" y="254.14" width="45" height="103.24"/><rect class="cls-7" x="485.46" y="282.62" width="45.02" height="74.76"/><rect class="cls-7" x="683.85" y="353.82" width="45.02" height="3.56"/><text class="cls-9" transform="translate(137.79 227.33)">35%</text><text class="cls-9" transform="translate(90.64 223.03)">36%</text><text class="cls-9" transform="translate(336.96 258.35)">27%</text><text class="cls-9" transform="translate(289.2 249.76)">29%</text><text class="cls-9" transform="translate(488.96 277.15)">21%</text><text class="cls-9" transform="translate(534.6 274.1)">22%</text><text class="cls-9" transform="translate(693.68 349.68)">1%</text><text class="cls-9" transform="translate(739.01 338.96)">4%</text><rect class="cls-7" x="882.24" y="311.1" width="45.02" height="46.28"/><rect class="cls-8" x="929.35" y="318.27" width="45.02" height="39.11"/><text class="cls-9" transform="translate(885.65 306.26)">13%</text><text class="cls-9" transform="translate(934.31 313.94)">11%</text><text class="cls-3" transform="translate(663.92 407.64)">Ar<tspan class="cls-10" x="29.53" y="0">r</tspan><tspan x="40.95" y="0">e</tspan><tspan class="cls-11" x="55.88" y="0">s</tspan><tspan x="69.73" y="0">t</tspan><tspan class="cls-10" x="81.58" y="0">a</tspan><tspan x="96.3" y="0">tie</tspan></text><rect class="cls-7" x="65.19" y="450.48" width="45.17" height="117.11" rx="9.12"/><rect class="cls-8" x="495.01" y="450.48" width="45.17" height="117.11" rx="9.12"/><text class="cls-12" transform="translate(122.56 482.22)">Nederlanders<tspan class="cls-13" x="190.06" y="0"> </tspan><tspan class="cls-14" x="196.54" y="0">z</tspan><tspan class="cls-13" x="209.41" y="0">onder </tspan><tspan class="cls-13"><tspan x="-0.09" y="31.2">mig</tspan><tspan class="cls-15" x="43.91" y="31.2">r</tspan><tspan x="52.67" y="31.2">atieachte</tspan><tspan class="cls-16" x="160.68" y="31.2">r</tspan><tspan x="169.58" y="31.2">g</tspan><tspan class="cls-17" x="184.32" y="31.2">r</tspan><tspan x="193.01" y="31.2">ond</tspan></tspan></text><text class="cls-12" transform="translate(552.4 482.22)">Nederlanders<tspan class="cls-13" x="190.06" y="0" xml:space="preserve"> met een niet-</tspan><tspan class="cls-13"><tspan class="cls-18" x="0" y="31.2">W</tspan><tspan x="22.48" y="31.2">esterse mig</tspan><tspan class="cls-15" x="159.44" y="31.2">r</tspan><tspan x="168.2" y="31.2">atieachte</tspan><tspan class="cls-16" x="276.21" y="31.2">r</tspan><tspan x="285.11" y="31.2">g</tspan><tspan class="cls-17" x="299.85" y="31.2">r</tspan><tspan x="308.53" y="31.2">ond</tspan></tspan></text><text class="cls-19" transform="translate(122.41 560.58)"><tspan class="cls-20">T</tspan><tspan x="12.62" y="0">otaal: 119 </tspan><tspan class="cls-16" x="116.94" y="0">r</tspan><tspan x="124.47" y="0">espondenten</tspan></text><text class="cls-19" transform="translate(552.4 560.58)"><tspan class="cls-21">T</tspan><tspan x="12.62" y="0">otaal: 257 </tspan><tspan class="cls-22" x="116.94" y="0">r</tspan><tspan x="124.46" y="0">espondenten </tspan></text><rect class="cls-8" x="730.96" y="343.14" width="45.02" height="14.24"/><rect class="cls-8" x="532.57" y="279.06" width="45.02" height="78.32"/></g></g></svg>