<svg xmlns="http://www.w3.org/2000/svg" viewBox="0 0 1093.86 691.73"><defs><style>.cls-1{fill:#fa3f47;}.cls-2{fill:#0048ff;}.cls-11,.cls-3,.cls-4,.cls-5{fill:#1d1d1b;}.cls-11,.cls-4{font-size:24.03px;}.cls-19,.cls-20,.cls-21,.cls-4{font-family:Roboto-Medium, Roboto;font-weight:500;}.cls-20,.cls-21,.cls-5{font-size:25px;}.cls-11,.cls-18,.cls-5{font-family:Rubik-Bold, Rubik;font-weight:700;}.cls-6{letter-spacing:0em;}.cls-7{letter-spacing:-0.01em;}.cls-8{letter-spacing:0em;}.cls-9{letter-spacing:-0.01em;}.cls-10{letter-spacing:-0.02em;}.cls-12{letter-spacing:-0.01em;}.cls-13{font-size:21px;font-family:Roboto-Light, Roboto;font-weight:300;}.cls-14{letter-spacing:-0.05em;}.cls-15{letter-spacing:-0.01em;}.cls-16{letter-spacing:-0.05em;}.cls-17{letter-spacing:-0.01em;}.cls-18{font-size:28px;}.cls-19{font-size:26px;}.cls-20{letter-spacing:-0.01em;}.cls-22{letter-spacing:-0.01em;}.cls-23{letter-spacing:-0.02em;}.cls-24{letter-spacing:-0.02em;}.cls-25{letter-spacing:0em;}.cls-26{letter-spacing:-0.01em;}.cls-27{letter-spacing:-0.01em;}</style></defs><title>Indicator_Aanleiding_Vis4</title><g id="Laag_2" data-name="Laag 2"><g id="Laag_1-2" data-name="Laag 1"><rect class="cls-1" x="68.06" y="588.03" width="45.17" height="100.2" rx="9.12"/><rect class="cls-2" x="497.87" y="588.03" width="45.17" height="100.2" rx="9.12"/><polygon class="cls-3" points="1093.86 450.04 78.92 450.04 78.92 2.84 81.75 2.84 81.75 447.2 1093.86 447.2 1093.86 450.04"/><text class="cls-4" transform="translate(13.14 406.32)">10%</text><text class="cls-4" transform="translate(13.14 363.42)">20%</text><text class="cls-4" transform="translate(13.14 320.51)">30%</text><text class="cls-4" transform="translate(13.14 277.61)">40%</text><text class="cls-4" transform="translate(13.14 234.76)">50%</text><text class="cls-4" transform="translate(13.14 191.92)">60%</text><text class="cls-4" transform="translate(13.14 149.08)">70%</text><text class="cls-4" transform="translate(13.14 106.24)">80%</text><text class="cls-4" transform="translate(13.14 63.4)">90%</text><text class="cls-4" transform="translate(0 20.56)">100%</text><text class="cls-4" transform="translate(27.82 445.7)">0%</text><text class="cls-5" transform="translate(118.8 487.43)">Melding</text><text class="cls-5" transform="translate(329.95 491.43)">Aangifte</text><text class="cls-5" transform="translate(500.7 496.49)">Hul<tspan class="cls-6" x="42.05" y="0">p</tspan><tspan x="57.8" y="0">, i</tspan><tspan class="cls-7" x="77.32" y="0">nf</tspan><tspan x="104.37" y="0">orm</tspan><tspan class="cls-8" x="154.2" y="0">a</tspan><tspan x="168.92" y="0">tie </tspan><tspan class="cls-9" x="45.01" y="30">o</tspan><tspan class="cls-10" x="60.24" y="30">f</tspan><tspan x="70.94" y="30" xml:space="preserve"> advies</tspan></text><rect class="cls-1" x="110.48" y="370.53" width="56.09" height="75.31"/><rect class="cls-2" x="169.17" y="366.1" width="56.09" height="79.74"/><text class="cls-11" transform="translate(173.23 359.47)">18%</text><text class="cls-11" transform="translate(115.77 364.2)">17%</text><rect class="cls-1" x="327.63" y="326.23" width="56.09" height="119.61"/><rect class="cls-2" x="386.32" y="299.65" width="56.09" height="146.19"/><text class="cls-11" transform="translate(331.09 319.55)">27%</text><text class="cls-11" transform="translate(388.64 293.61)">33%</text><rect class="cls-2" x="603.47" y="299.65" width="56.09" height="146.19"/><rect class="cls-1" x="544.78" y="321.8" width="56.09" height="124.04"/><text class="cls-11" transform="translate(547.02 317.4)">28%</text><text class="cls-11" transform="translate(605.79 293.61)">33%</text><rect class="cls-1" x="761.93" y="405.97" width="56.09" height="39.87"/><rect class="cls-2" x="820.62" y="423.69" width="56.09" height="22.15"/><text class="cls-11" transform="translate(772.47 399.45)">9%</text><text class="cls-11" transform="translate(831.1 417.28)">5%</text><text class="cls-5" transform="translate(773.17 496.04)">P<tspan class="cls-12" x="16.97" y="0">r</tspan><tspan x="28.28" y="0">a</tspan><tspan class="cls-6" x="43.1" y="0">a</tspan><tspan x="57.82" y="0">tje</tspan></text><text class="cls-13" transform="translate(127.87 683.22)"><tspan class="cls-14">T</tspan><tspan x="11.53" y="0">otaal: 107 </tspan><tspan class="cls-15" x="106.77" y="0">r</tspan><tspan x="113.64" y="0">espondenten</tspan></text><text class="cls-13" transform="translate(557.86 683.22)"><tspan class="cls-16">T</tspan><tspan x="11.53" y="0">otaal: 113 </tspan><tspan class="cls-17" x="106.78" y="0">r</tspan><tspan x="113.65" y="0">espondenten</tspan></text><rect class="cls-1" x="979.08" y="361.67" width="56.09" height="84.17"/><rect class="cls-2" x="1037.77" y="397.11" width="56.09" height="48.73"/><text class="cls-11" transform="translate(983.56 356.03)">19%</text><text class="cls-11" transform="translate(1043.96 391.67)">11%</text><text class="cls-5" transform="translate(991.28 496.04)">Anders</text><text class="cls-18" transform="translate(128.02 611.01)">Nederlanders<tspan class="cls-19" x="190.06" y="0"> </tspan><tspan class="cls-20" x="196.54" y="0">z</tspan><tspan class="cls-21" x="208.91" y="0">onder </tspan><tspan class="cls-21"><tspan x="-0.09" y="30">mig</tspan><tspan class="cls-22" x="42.22" y="30">r</tspan><tspan x="50.65" y="30">atieachte</tspan><tspan class="cls-15" x="154.5" y="30">r</tspan><tspan x="163.06" y="30">g</tspan><tspan class="cls-23" x="177.23" y="30">r</tspan><tspan x="185.58" y="30">ond</tspan></tspan></text><text class="cls-18" transform="translate(557.86 611.01)">Nederlanders<tspan class="cls-19" x="190.06" y="0"> </tspan><tspan class="cls-21" x="196.54" y="0">met een niet-</tspan><tspan class="cls-21"><tspan class="cls-24" x="0" y="30">W</tspan><tspan class="cls-25" x="21.62" y="30">esterse mig</tspan><tspan class="cls-26" x="153.31" y="30">r</tspan><tspan x="161.73" y="30">atieachte</tspan><tspan class="cls-27" x="265.59" y="30">r</tspan><tspan x="274.14" y="30">g</tspan><tspan class="cls-23" x="288.32" y="30">r</tspan><tspan x="296.67" y="30">ond</tspan></tspan></text></g></g></svg>