<svg xmlns="http://www.w3.org/2000/svg" viewBox="0 0 989 620.63"><defs><style>.cls-1{fill:none;stroke:#1d1d1b;stroke-miterlimit:10;stroke-width:2.83px;}.cls-2,.cls-9{font-size:19.29px;}.cls-2,.cls-3,.cls-9{fill:#1d1d1b;}.cls-2,.cls-20,.cls-21{font-family:Roboto-Medium, Roboto;font-weight:500;}.cls-3{font-size:24.11px;}.cls-19,.cls-3,.cls-9{font-family:Rubik-Bold, Rubik;font-weight:700;}.cls-4{letter-spacing:0em;}.cls-5{letter-spacing:-0.02em;}.cls-6{letter-spacing:-0.02em;}.cls-7{fill:#fa3f47;}.cls-8{fill:#0048ff;}.cls-10{letter-spacing:-0.01em;}.cls-11{letter-spacing:-0.06em;}.cls-12{letter-spacing:-0.01em;}.cls-13{letter-spacing:0em;}.cls-14{letter-spacing:0em;}.cls-15{letter-spacing:0em;}.cls-16{letter-spacing:-0.01em;}.cls-17{letter-spacing:-0.03em;}.cls-18{letter-spacing:0em;}.cls-19{font-size:28px;}.cls-20,.cls-21{font-size:26px;}.cls-21{letter-spacing:-0.01em;}.cls-22{letter-spacing:-0.01em;}.cls-23{letter-spacing:-0.01em;}.cls-24{letter-spacing:-0.02em;}.cls-25{letter-spacing:-0.02em;}.cls-26{font-size:23px;font-family:Roboto-Light, Roboto;font-weight:300;}.cls-27{letter-spacing:-0.05em;}.cls-28{letter-spacing:-0.05em;}.cls-29{letter-spacing:-0.01em;}</style></defs><title>Indicator_Uitkomst_Vis2</title><g id="Laag_2" data-name="Laag 2"><g id="Laag_1-2" data-name="Laag 1"><polyline class="cls-1" points="988.96 366.15 85.77 366.15 79.08 366.15 79.08 8.5"/><text class="cls-2" transform="translate(42.59 334.23)">1</text><text class="cls-2" transform="translate(42.59 298.93)">2</text><text class="cls-2" transform="translate(42.59 263.63)">3</text><text class="cls-2" transform="translate(42.59 228.32)">4</text><text class="cls-2" transform="translate(42.59 193.02)">5</text><text class="cls-2" transform="translate(42.59 157.71)">6</text><text class="cls-2" transform="translate(42.59 122.41)">7</text><text class="cls-2" transform="translate(42.59 87.11)">8</text><text class="cls-2" transform="translate(42.59 51.8)">9</text><text class="cls-2" transform="translate(31.63 16.5)">10</text><text class="cls-2" transform="translate(42.59 369.54)">0</text><text class="cls-3" transform="translate(116.1 411.87)">Ni<tspan class="cls-4" x="24.38" y="0">e</tspan><tspan x="38.75" y="0">ts</tspan></text><text class="cls-3" transform="translate(257.76 411.87)"><tspan class="cls-5">W</tspan><tspan x="19.6" y="0">aarschuwing</tspan></text><text class="cls-3" transform="translate(483.49 411.87)">Be<tspan class="cls-6" x="31.44" y="0">k</tspan><tspan x="45.14" y="0">euring</tspan></text><text class="cls-3" transform="translate(899.13 413.07)">Anders</text><rect class="cls-7" x="698.44" y="214.4" width="45.02" height="149.1"/><rect class="cls-8" x="745.55" y="242.8" width="45.02" height="120.7"/><text class="cls-9" transform="translate(705.28 209.43)"><tspan class="cls-10">4</tspan><tspan x="13.16" y="0">.2</tspan></text><text class="cls-9" transform="translate(752.3 237.99)">3<tspan class="cls-10" x="12.83" y="0">.</tspan><tspan x="18.25" y="0">4</tspan></text><rect class="cls-7" x="896.83" y="115" width="45.02" height="248.5"/><rect class="cls-8" x="943.94" y="150.5" width="45.02" height="213"/><text class="cls-9" transform="translate(904.99 110.48)"><tspan class="cls-11">7</tspan><tspan class="cls-12" x="10.09" y="0">.</tspan><tspan x="15.51" y="0">0</tspan></text><text class="cls-9" transform="translate(950.87 146.32)">6<tspan class="cls-10" x="12.63" y="0">.</tspan><tspan x="18.06" y="0">0</tspan></text><text class="cls-3" transform="translate(680.83 413.07)">Ar<tspan class="cls-13" x="28.47" y="0">r</tspan><tspan x="39.49" y="0">e</tspan><tspan class="cls-14" x="53.89" y="0">s</tspan><tspan x="67.25" y="0">t</tspan><tspan class="cls-15" x="78.67" y="0">a</tspan><tspan x="92.88" y="0">tie</tspan></text><rect class="cls-7" x="103.28" y="104.35" width="45.02" height="259.15"/><rect class="cls-8" x="150.38" y="150.5" width="45.02" height="213"/><text class="cls-9" transform="translate(111.56 98.48)"><tspan class="cls-11">7</tspan><tspan x="10.09" y="0">.3</tspan></text><text class="cls-9" transform="translate(157.27 145.72)">6<tspan class="cls-16" x="12.63" y="0">.</tspan><tspan x="18.05" y="0">0</tspan></text><rect class="cls-7" x="301.67" y="125.65" width="45.02" height="237.85"/><rect class="cls-8" x="348.77" y="168.25" width="45.02" height="195.25"/><text class="cls-9" transform="translate(309.81 120.72)">6<tspan class="cls-17" x="12.63" y="0">.</tspan><tspan x="17.57" y="0">7</tspan></text><text class="cls-9" transform="translate(356 162.9)"><tspan class="cls-18">5</tspan><tspan x="12.48" y="0">.5</tspan></text><rect class="cls-7" x="500.05" y="136.3" width="45.02" height="227.2"/><rect class="cls-8" x="547.16" y="186" width="45.02" height="177.5"/><text class="cls-9" transform="translate(554.13 181.02)"><tspan class="cls-18">5</tspan><tspan class="cls-10" x="12.48" y="0">.</tspan><tspan x="17.9" y="0">0</tspan></text><text class="cls-9" transform="translate(506.9 131.4)">6<tspan class="cls-10" x="12.63" y="0">.</tspan><tspan x="18.06" y="0">4</tspan></text><rect class="cls-7" x="73.5" y="479.16" width="45.17" height="135.82" rx="9.12"/><rect class="cls-8" x="503.31" y="479.16" width="45.17" height="135.82" rx="9.12"/><text class="cls-19" transform="translate(130.87 510.9)">Nederlanders<tspan class="cls-20" x="190.06" y="0"> </tspan><tspan class="cls-21" x="196.54" y="0">z</tspan><tspan class="cls-20" x="209.41" y="0">onder </tspan><tspan class="cls-20"><tspan x="-0.09" y="31.2">mig</tspan><tspan class="cls-22" x="43.91" y="31.2">r</tspan><tspan x="52.67" y="31.2">atieachte</tspan><tspan class="cls-23" x="160.68" y="31.2">r</tspan><tspan x="169.58" y="31.2">g</tspan><tspan class="cls-24" x="184.32" y="31.2">r</tspan><tspan x="193.01" y="31.2">ond</tspan></tspan></text><text class="cls-19" transform="translate(560.7 510.9)">Nederlanders<tspan class="cls-20" x="190.06" y="0" xml:space="preserve"> met een niet-</tspan><tspan class="cls-20"><tspan class="cls-25" x="0" y="31.2">W</tspan><tspan x="22.48" y="31.2">esterse mig</tspan><tspan class="cls-22" x="159.44" y="31.2">r</tspan><tspan x="168.2" y="31.2">atieachte</tspan><tspan class="cls-23" x="276.21" y="31.2">r</tspan><tspan x="285.11" y="31.2">g</tspan><tspan class="cls-24" x="299.85" y="31.2">r</tspan><tspan x="308.53" y="31.2">ond</tspan></tspan></text><text class="cls-26" transform="translate(130.71 584.32)"><tspan class="cls-27">T</tspan><tspan x="12.62" y="0">otaal 119 </tspan><tspan class="cls-23" x="112.11" y="0">r</tspan><tspan x="119.64" y="0">espondenten</tspan><tspan x="0" y="27.6">Gemiddelde: 7.3</tspan></text><text class="cls-26" transform="translate(560.7 586.79)"><tspan class="cls-28">T</tspan><tspan x="12.62" y="0">otaal 257 </tspan><tspan class="cls-29" x="112.11" y="0">r</tspan><tspan x="119.64" y="0">espondenten</tspan><tspan x="0" y="27.6">Gemiddelde: 6.4</tspan></text></g></g></svg>