<svg xmlns="http://www.w3.org/2000/svg" viewBox="0 0 1000.51 704.83"><defs><style>.cls-1{fill:#fa3f47;}.cls-2{fill:#0048ff;}.cls-3{font-size:28px;}.cls-12,.cls-20,.cls-3{font-family:Rubik-Bold, Rubik;font-weight:700;}.cls-4,.cls-5{font-size:26px;}.cls-11,.cls-4,.cls-5{font-family:Roboto-Medium, Roboto;font-weight:500;}.cls-5{letter-spacing:-0.01em;}.cls-6{letter-spacing:-0.01em;}.cls-7{letter-spacing:-0.01em;}.cls-8{letter-spacing:-0.02em;}.cls-9{letter-spacing:-0.02em;}.cls-10,.cls-11,.cls-12,.cls-20{fill:#1d1d1b;}.cls-11{font-size:24px;}.cls-12{font-size:25px;}.cls-13{letter-spacing:0em;}.cls-14{letter-spacing:0em;}.cls-15{letter-spacing:0em;}.cls-16{letter-spacing:-0.02em;}.cls-17{letter-spacing:-0.02em;}.cls-18{letter-spacing:-0.01em;}.cls-19{letter-spacing:0em;}.cls-20{font-size:24.03px;}.cls-21{font-size:21px;font-family:Roboto-Light, Roboto;font-weight:300;}.cls-22{letter-spacing:-0.05em;}.cls-23{letter-spacing:-0.05em;}.cls-24{letter-spacing:-0.01em;}</style></defs><title>Indicator_Aanleiding_Vis2</title><g id="Laag_2" data-name="Laag 2"><g id="Laag_1-2" data-name="Laag 1"><rect class="cls-1" x="68.06" y="587.72" width="45.17" height="117.11" rx="9.12"/><rect class="cls-2" x="497.87" y="587.72" width="45.17" height="117.11" rx="9.12"/><text class="cls-3" transform="translate(125.42 619.46)">Nederlanders<tspan class="cls-4" x="190.06" y="0"> </tspan><tspan class="cls-5" x="196.54" y="0">z</tspan><tspan class="cls-4" x="209.41" y="0">onder </tspan><tspan class="cls-4"><tspan x="-0.09" y="31.2">mig</tspan><tspan class="cls-6" x="43.91" y="31.2">r</tspan><tspan x="52.67" y="31.2">atieachte</tspan><tspan class="cls-7" x="160.68" y="31.2">r</tspan><tspan x="169.58" y="31.2">g</tspan><tspan class="cls-8" x="184.32" y="31.2">r</tspan><tspan x="193.01" y="31.2">ond</tspan></tspan></text><text class="cls-3" transform="translate(555.26 619.46)">Nederlanders<tspan class="cls-4" x="190.06" y="0" xml:space="preserve"> met een niet-</tspan><tspan class="cls-4"><tspan class="cls-9" x="0" y="31.2">W</tspan><tspan x="22.48" y="31.2">esterse mig</tspan><tspan class="cls-6" x="159.44" y="31.2">r</tspan><tspan x="168.2" y="31.2">atieachte</tspan><tspan class="cls-7" x="276.21" y="31.2">r</tspan><tspan x="285.11" y="31.2">g</tspan><tspan class="cls-8" x="299.85" y="31.2">r</tspan><tspan x="308.53" y="31.2">ond</tspan></tspan></text><polygon class="cls-10" points="1000.51 449.73 78.92 449.73 78.92 2.53 81.75 2.53 81.75 446.9 87.78 446.9 1000.51 446.9 1000.51 449.73"/><text class="cls-11" transform="translate(13.14 402.78)">10%</text><text class="cls-11" transform="translate(13.14 360.31)">20%</text><text class="cls-11" transform="translate(13.14 317.83)">30%</text><text class="cls-11" transform="translate(13.14 275.36)">40%</text><text class="cls-11" transform="translate(13.14 232.89)">50%</text><text class="cls-11" transform="translate(13.14 190.42)">60%</text><text class="cls-11" transform="translate(13.14 147.95)">70%</text><text class="cls-11" transform="translate(13.14 105.48)">80%</text><text class="cls-11" transform="translate(13.14 63)">90%</text><text class="cls-11" transform="translate(0 20.53)">100%</text><text class="cls-11" transform="translate(27.82 445.25)">0%</text><text class="cls-12" transform="translate(112.96 487.12)">Co<tspan class="cls-13" x="33" y="0">n</tspan><tspan x="49.03" y="0">t</tspan><tspan class="cls-14" x="60.88" y="0">r</tspan><tspan x="72.3" y="0">ole</tspan></text><text class="cls-12" transform="translate(344.9 487.12)">I<tspan class="cls-14" x="8.23" y="0">k</tspan><tspan x="22.9" y="0" xml:space="preserve"> deed i</tspan><tspan class="cls-15" x="102.2" y="0">e</tspan><tspan x="117.1" y="0">ts </tspan><tspan class="cls-16" x="15.31" y="30">v</tspan><tspan x="29.79" y="30">er</tspan><tspan class="cls-17" x="56.24" y="30">k</tspan><tspan x="70.44" y="30">ee</tspan><tspan class="cls-14" x="100.29" y="30">r</tspan><tspan x="111.71" y="30">d</tspan></text><text class="cls-12" transform="translate(617.34 487.12)">P<tspan class="cls-18" x="16.97" y="0">r</tspan><tspan x="28.28" y="0">a</tspan><tspan class="cls-19" x="43.1" y="0">a</tspan><tspan x="57.82" y="0">tje </tspan></text><rect class="cls-1" x="110.48" y="268.33" width="56.09" height="177.2"/><rect class="cls-2" x="169.17" y="268.33" width="56.09" height="177.2"/><rect class="cls-1" x="357.64" y="299.34" width="56.09" height="146.19"/><rect class="cls-2" x="416.33" y="272.76" width="56.09" height="172.77"/><rect class="cls-1" x="604.8" y="410.68" width="56.09" height="35.44"/><rect class="cls-2" x="663.49" y="410.68" width="56.09" height="35.27"/><rect class="cls-1" x="851.96" y="356.93" width="56.09" height="88.6"/><rect class="cls-2" x="910.65" y="387.94" width="56.09" height="57.59"/><text class="cls-20" transform="translate(170.99 261.06)">40%</text><text class="cls-20" transform="translate(112.3 260.88)">40%</text><text class="cls-20" transform="translate(359.96 292.56)">33%</text><text class="cls-20" transform="translate(418.88 266.69)">39%</text><text class="cls-20" transform="translate(614.92 405.38)">8%</text><text class="cls-20" transform="translate(673.61 404.98)">8%</text><text class="cls-20" transform="translate(854.16 349.76)">20%</text><text class="cls-20" transform="translate(914.91 380.78)">13%</text><text class="cls-12" transform="translate(862.86 487.87)">Anders</text><text class="cls-21" transform="translate(125.27 696.32)"><tspan class="cls-22">T</tspan><tspan x="11.53" y="0">otaal: 124 </tspan><tspan class="cls-7" x="106.77" y="0">r</tspan><tspan x="113.64" y="0">espondenten</tspan></text><text class="cls-21" transform="translate(555.26 696.32)"><tspan class="cls-23">T</tspan><tspan x="11.53" y="0">otaal: 244 </tspan><tspan class="cls-24" x="106.78" y="0">r</tspan><tspan x="113.65" y="0">espondenten</tspan></text></g></g></svg>