<svg height="646" viewBox="0 0 1005 646" width="1005" xmlns="http://www.w3.org/2000/svg"><g fill="none" fill-rule="evenodd" transform="translate(-1)"><rect fill="#0048ff" height="295.72" rx="9.12" transform="matrix(0 1 -1 0 1293.23 -259.51)" width="26.74" x="763" y="369"/><text fill="#000" font-family="Roboto-Light, Roboto" font-size="30" font-weight="300"><tspan x="658.549316" y="490">389 respondenten</tspan></text><g font-size="28"><text fill="#1d1d1b" font-family="Roboto-Medium, Roboto" font-weight="400"><tspan x="629" y="603">een niet-westerse </tspan><tspan x="629" y="640">migratieachtergrond</tspan></text><text fill="#000" font-family="Roboto-Medium, Roboto" font-weight="400"><tspan x="826" y="564">met</tspan></text><text fill="#1d1d1b" font-family="Rubik-Bold, Rubik" font-weight="bold"><tspan x="629" y="565">Nederlanders</tspan></text></g><rect fill="#fa3f47" height="295.72" rx="9.12" transform="matrix(0 1 -1 0 746.5 286.98)" width="26.74" x="216.39" y="368.88"/><text fill="#000" font-family="Roboto-Medium, Roboto" font-size="28" font-weight="400"><tspan x="279" y="564">zonder</tspan></text><text fill="#000" font-family="Roboto-Medium, Roboto" font-size="28" font-weight="400"><tspan x="83" y="601">migratieachtergrond</tspan></text><text fill="#1d1d1b" font-family="Rubik-Bold, Rubik" font-size="28" font-weight="bold"><tspan x="82" y="565">Nederlanders</tspan></text><text fill="#000" font-family="Roboto-Light, Roboto" font-size="30" font-weight="300"><tspan x="109.549316" y="490">236 respondenten</tspan></text><path d="m70.8 67.21 1.53-1.48c43.09-41.61 97.53-63.6 157.43-63.6h2.13v231.87z" fill="#a2a1a1"/><path d="m229.76 4.25v224.51l-155.96-161.5c42.82-41.34 96.44-63 156-63zm4.24-4.25h-4.25c-60.45 0-115.4 22.2-158.9 64.2l-3.06 3 3 3.06 156 161.49 7.31 7.57v-239.32z" fill="#fff" fill-rule="nonzero"/><path d="m4.56 203.25.26-2.11c6.67-54.35 28.12-97.37 67.51-135.41l1.53-1.47 161.6 167.34z" fill="#6f6f6e"/><path d="m73.8 67.26 156 161.5-222.87-27.36c6.64-54.15 27.63-96.24 66.87-134.14zm.11-6-3.06 3c-20.16 19.41-35.37 39.74-46.51 62.08s-18.22 46.73-21.63 74.54l-.52 4.22 4.22.52 222.83 27.38 11.92 1.46-8.34-8.63-156-161.5-3-3.06z" fill="#fff" fill-rule="nonzero"/><path d="m229.76 455.4c-125.16591-.005523-226.63000012-101.474089-226.63-226.64-.04743699-9.233891.51713345-18.460776 1.69-27.62l.25-2.14 222.56 27.33v-224.2h2.13c91.656065.00938991 174.282915 55.2259054 209.356902 139.905594 35.073987 84.679689 15.689028 182.149086-49.116902 246.964406-42.402082 42.645245-100.102412 66.555017-160.24 66.4z" fill="#020303"/><path d="m229.76 4.25c124 0 224.51 100.52 224.51 224.51s-100.52 224.51-224.51 224.51-224.51-100.52-224.51-224.51c-.04547871-9.147112.51575293-18.28717 1.68-27.36l222.83 27.36zm0-4.25h-4.25v224l-218.07-26.82-4.22-.52-.51 4.22c-1.18421818 9.245453-1.75546564 18.559125-1.71 27.88.06869971 108.805094 76.7459562 202.514459 183.384535 224.11924 106.63858 21.604782 213.743021-34.870748 256.155465-135.06924 29.896337-70.651641 22.375625-151.586732-20.026729-215.52018-42.402354-63.9334474-114.036636-102.34672229-190.753271-102.28982z" fill="#fff" fill-rule="nonzero"/><text fill="#f4e84a" font-family="Rubik-Black, Rubik" font-size="39" font-weight="700"><tspan x="282.14" y="305.43">77%</tspan></text><text fill="#f4e84a" font-family="Rubik-Black, Rubik" font-size="39" font-weight="700"><tspan x="42.11" y="170.79">11%</tspan></text><text fill="#f4e84a" font-family="Rubik-Black, Rubik" font-size="39" font-weight="700"><tspan x="131.86" y="85.11">12%</tspan></text><path d="m554.06 259.77c-17.345853-123.573157 68.743087-237.8197284 192.31-255.21 10.423223-1.42728164 20.929578-2.16222538 31.45-2.2h2.18v227.81l-225.6 31.71z" fill="#a2a1a1"/><path d="m777.82 4.49v223.83l-221.66 31.16c-17.16-122.42 68.09-235.61 190.51-252.81 10.323569-1.41598195 20.729836-2.14425363 31.15-2.18zm4.25-4.25h-4.25c-10.61758.03379487-21.221094.77543954-31.74 2.22-59.916381 8.3848625-114.040288 40.2487882-150.445087 88.5703069-36.404799 48.3215191-52.102833 109.1349941-43.634913 169.0396931l.59 4.21 4.21-.59 221.66-31.15 3.66-.52v-231.78z" fill="#fff" fill-rule="nonzero"/><path d="m682.32 433.12c-36-16.8-65.31-40.24-87.1-69.68s-35.63-64.32-41.16-103.67l-.3-2.1 227.64-32-97.15 208.33z" fill="#6f6f6e"/><path d="m777.82 228.32-94.6 202.87c-71.7-33.44-116.05-93.37-127.06-171.71zm7.18-5.32-7.75 1.09-221.68 31.18-4.21.59.59 4.21c5.58 39.7 19.57 74.9 41.56 104.63s51.58 53.4 87.92 70.34l3.85 1.8 1.8-3.85 94.59-202.87z" fill="#fff" fill-rule="nonzero"/><path d="m777.82 454.29c-35.11 0-63.67-6.34-95.5-21.17l-1.92-.9 95.29-204.37v-225.49h2.13c91.374663.03728529 173.736506 55.0938526 208.704314 139.512943 34.967806 84.419091 15.660606 181.588688-48.924314 246.227057-42.282059 42.517946-99.817329 66.35234-159.78 66.19z" fill="#020303"/><path d="m777.82 4.49c123.62 0 223.83 100.21 223.83 223.83s-100.21 223.84-223.83 223.84c-34.61 0-63.23-6.34-94.6-21l94.6-202.87zm0-4.25h-4.25v227.14l-94.2 202-1.8 3.86 3.86 1.79c32.12 15 61 21.37 96.39 21.37 108.472749-.087455 201.886524-76.537613 223.42377-182.850791 21.53725-106.313177-34.757488-213.0917441-134.64377-255.389209-28.086865-11.88369677-58.28261-17.97862534-88.78-17.92z" fill="#fff" fill-rule="nonzero"/><text fill="#f4e84a" font-family="Rubik-Black, Rubik" font-size="39" font-weight="700"><tspan x="855.98" y="270.73">57%</tspan></text><text fill="#f4e84a" font-family="Rubik-Black, Rubik" font-size="39" font-weight="700"><tspan x="608.62" y="325.9">16%</tspan></text><text fill="#f4e84a" font-family="Rubik-Black, Rubik" font-size="39" font-weight="700"><tspan x="629.91" y="152.97">27%</tspan></text></g></svg>