<svg xmlns="http://www.w3.org/2000/svg" viewBox="0 0 658.82 761.02"><defs><style>.cls-1{fill:#6f6f6e;}.cls-2{fill:#a2a1a1;}.cls-11,.cls-14,.cls-3,.cls-4{fill:#1d1d1b;}.cls-4{font-size:23.76px;}.cls-13,.cls-15,.cls-4{font-family:Roboto-Medium, Roboto;}.cls-13,.cls-15,.cls-4,.cls-5{font-weight:500;}.cls-5{font-size:30px;fill:#fff33d;font-family:Rubik-Medium, Rubik;}.cls-6{fill:none;stroke:#1d1d1b;stroke-miterlimit:10;stroke-width:3px;}.cls-7{fill:#fc3e46;}.cls-8{fill:#0048ff;}.cls-9{font-size:20px;font-family:Roboto-Light, Roboto;font-weight:300;}.cls-10{letter-spacing:-0.01em;}.cls-11,.cls-14{font-size:28px;font-family:Rubik-Bold, Rubik;font-weight:700;}.cls-11{letter-spacing:-0.02em;}.cls-12,.cls-13,.cls-15{font-size:25px;}.cls-12{letter-spacing:-0.02em;}.cls-13{letter-spacing:-0.02em;}.cls-14{letter-spacing:-0.02em;}.cls-15{letter-spacing:-0.02em;}.cls-16{fill:#f4e84a;}</style></defs><title>Indicator_Ervaring_Vis2</title><g id="Laag_2" data-name="Laag 2"><g id="Laag_1-2" data-name="Laag 1"><rect class="cls-1" x="99.78" y="56.77" width="267.98" height="47.61"/><rect class="cls-2" x="99.78" y="104.38" width="267.98" height="465.52"/><rect class="cls-3" x="99.78" y="40.9" width="267.98" height="15.87"/><rect class="cls-3" x="390.84" y="40.9" width="267.98" height="222.18"/><rect class="cls-1" x="390.84" y="263.08" width="267.98" height="116.38"/><rect class="cls-2" x="390.84" y="378.15" width="267.98" height="192.28"/><polygon class="cls-3" points="658.82 595.39 75.13 595.39 75.13 43.9 69.36 43.9 69.36 40.9 78.13 40.9 78.13 592.39 658.82 592.39 658.82 595.39"/><text class="cls-4" transform="translate(20.49 579.89)">0%</text><text class="cls-4" transform="translate(10.79 474.24)">20%</text><text class="cls-4" transform="translate(10.79 368.59)">40%</text><text class="cls-5" transform="translate(201.06 345.66)">88%</text><text class="cls-5" transform="translate(498.91 482.82)">36%</text><text class="cls-5" transform="translate(499.46 329.79)">22%</text><text class="cls-5" transform="translate(498.91 160.51)">42%</text><text class="cls-4" transform="translate(10.79 262.94)">60%</text><text class="cls-4" transform="translate(10.79 157.28)">80%</text><text class="cls-4" transform="translate(0 51.63)">100%</text><line class="cls-6" x1="69.36" y1="570.44" x2="76.63" y2="570.44"/><line class="cls-6" x1="69.36" y1="464.88" x2="76.63" y2="464.88"/><line class="cls-6" x1="69.36" y1="359.32" x2="76.63" y2="359.32"/><line class="cls-6" x1="69.36" y1="253.76" x2="76.63" y2="253.76"/><line class="cls-6" x1="69.36" y1="148.21" x2="76.63" y2="148.21"/><rect class="cls-7" x="216" y="512.38" width="26.74" height="267.9" rx="9.12" transform="translate(875.7 416.97) rotate(90)"/><rect class="cls-8" x="507.05" y="511.93" width="26.74" height="267.98" rx="9.12" transform="translate(1166.35 125.5) rotate(90)"/><text class="cls-5" transform="translate(214.4 89.09)">9%</text><text class="cls-9" transform="translate(441.42 624.33)">279 <tspan class="cls-10" x="38.12" y="0">r</tspan><tspan x="44.66" y="0">espondenten</tspan></text><text class="cls-11" transform="translate(95.65 694.24) scale(0.99 1)">Nederlanders<tspan class="cls-12" x="184.35" y="0"> </tspan><tspan class="cls-13" x="189.17" y="0">zonder </tspan><tspan class="cls-13"><tspan x="0" y="30">migratieachtergrond</tspan></tspan></text><text class="cls-14" transform="translate(386.71 694.24)">Nederlanders <tspan class="cls-15" x="189.75" y="0">met </tspan><tspan class="cls-15"><tspan x="0" y="30">een niet-Westerse </tspan><tspan x="0" y="60">migratieachtergrond</tspan></tspan></text><text class="cls-9" transform="translate(152.29 624.33)">129 <tspan class="cls-10" x="38.12" y="0">r</tspan><tspan x="44.66" y="0">espondenten</tspan></text><circle class="cls-3" cx="235.37" cy="47.38" r="5.26"/><path class="cls-16" d="M235.37,43.12a4.26,4.26,0,1,1-4.25,4.26,4.26,4.26,0,0,1,4.25-4.26m0-2a6.26,6.26,0,1,0,6.26,6.26,6.26,6.26,0,0,0-6.26-6.26Z"/><path class="cls-3" d="M262.78,2V30.26a2,2,0,0,1-2,2H237.83V49.39h-4.92V32.26H210a2,2,0,0,1-2-2V2a2,2,0,0,1,2-2h50.81A2,2,0,0,1,262.78,2Z"/><text class="cls-5" transform="translate(214.4 26.99)">3%</text></g></g></svg>