<svg xmlns="http://www.w3.org/2000/svg" viewBox="0 0 658.82 725.2"><defs><style>.cls-1{fill:#6f6f6e;}.cls-2{fill:#a2a1a1;}.cls-11,.cls-14,.cls-3,.cls-4{fill:#1d1d1b;}.cls-4{font-size:24px;}.cls-13,.cls-15,.cls-4{font-family:Roboto-Medium, Roboto;}.cls-13,.cls-15,.cls-4,.cls-5{font-weight:500;}.cls-5{font-size:30px;fill:#fff33d;font-family:Rubik-Medium, Rubik;}.cls-6{fill:none;stroke:#1d1d1b;stroke-miterlimit:10;stroke-width:3px;}.cls-7{fill:#fc3e46;}.cls-8{fill:#0048ff;}.cls-9{font-size:20px;font-family:Roboto-Light, Roboto;font-weight:300;}.cls-10{letter-spacing:-0.01em;}.cls-11,.cls-14{font-size:28px;font-family:Rubik-Bold, Rubik;font-weight:700;}.cls-11{letter-spacing:-0.02em;}.cls-12,.cls-13,.cls-15{font-size:25px;}.cls-12{letter-spacing:-0.02em;}.cls-13{letter-spacing:-0.02em;}.cls-14{letter-spacing:-0.02em;}.cls-15{letter-spacing:-0.02em;}</style></defs><title>Indicator_Ervaring_Vis1</title><g id="Laag_2" data-name="Laag 2"><g id="Laag_1-2" data-name="Laag 1"><rect class="cls-1" x="99.78" y="349.82" width="267.98" height="137.54"/><rect class="cls-2" x="99.78" y="487.36" width="267.98" height="47.61"/><rect class="cls-3" x="99.78" y="5.97" width="267.98" height="343.85"/><rect class="cls-3" x="390.84" y="5.97" width="267.98" height="185.15"/><rect class="cls-1" x="390.84" y="191.12" width="267.98" height="148.12"/><rect class="cls-2" x="390.84" y="339.24" width="267.98" height="195.73"/><polygon class="cls-3" points="658.82 559.93 75.13 559.93 75.13 8.97 69.36 8.97 69.36 5.97 78.13 5.97 78.13 556.93 658.82 556.93 658.82 559.93"/><text class="cls-4" transform="translate(20.49 542.25)">0%</text><text class="cls-4" transform="translate(10.79 437.91)">20%</text><text class="cls-4" transform="translate(10.79 333.56)">40%</text><text class="cls-5" transform="translate(209.68 519.69)">9%</text><text class="cls-5" transform="translate(203 427.11)">26%</text><text class="cls-5" transform="translate(203 186.42)">65%</text><text class="cls-5" transform="translate(493.58 445.63)">37%</text><text class="cls-5" transform="translate(493.58 273.7)">28%</text><text class="cls-5" transform="translate(493.58 107.07)">35%</text><text class="cls-4" transform="translate(10.79 229.22)">60%</text><text class="cls-4" transform="translate(10.79 124.88)">80%</text><text class="cls-4" transform="translate(0 20.53)">100%</text><line class="cls-6" x1="69.36" y1="534.97" x2="76.63" y2="534.97"/><line class="cls-6" x1="69.36" y1="429.42" x2="76.63" y2="429.42"/><line class="cls-6" x1="69.36" y1="323.86" x2="76.63" y2="323.86"/><line class="cls-6" x1="69.36" y1="218.3" x2="76.63" y2="218.3"/><line class="cls-6" x1="69.36" y1="112.74" x2="76.63" y2="112.74"/><rect class="cls-7" x="220.4" y="476.92" width="26.74" height="267.9" rx="9.12" transform="translate(844.64 377.1) rotate(90)"/><rect class="cls-8" x="511.46" y="476.47" width="26.74" height="267.98" rx="9.12" transform="translate(1135.29 85.63) rotate(90)"/><text class="cls-9" transform="translate(445.55 588.52)">279 <tspan class="cls-10" x="38.12" y="0">r</tspan><tspan x="44.66" y="0">espondenten</tspan></text><text class="cls-11" transform="translate(99.78 658.42) scale(0.99 1)">Nederlanders<tspan class="cls-12" x="184.35" y="0"> </tspan><tspan class="cls-13" x="189.17" y="0">zonder </tspan><tspan class="cls-13"><tspan x="0" y="30">migratieachtergrond</tspan></tspan></text><text class="cls-14" transform="translate(390.84 658.43)">Nederlanders <tspan class="cls-15" x="189.75" y="0">met </tspan><tspan class="cls-15"><tspan x="0" y="30">een niet-Westerse </tspan><tspan x="0" y="60">migratieachtergrond</tspan></tspan></text><text class="cls-9" transform="translate(156.42 588.52)">120 <tspan class="cls-10" x="38.12" y="0">r</tspan><tspan x="44.66" y="0">espondenten</tspan></text></g></g></svg>