<svg xmlns="http://www.w3.org/2000/svg" viewBox="0 0 986.21 638.23"><defs><style>.cls-1{fill:#a2a1a1;}.cls-2{fill:#fff;}.cls-3{fill:#6f6f6e;}.cls-10,.cls-13,.cls-4{fill:#1d1d1b;}.cls-5{font-size:39.6px;fill:#f4e84a;}.cls-10,.cls-13,.cls-5{font-family:Rubik-Bold, Rubik;font-weight:700;}.cls-6{fill:#0048ff;}.cls-7{fill:#fa3f47;}.cls-8{font-size:20px;font-family:Roboto-Light, Roboto;font-weight:300;}.cls-9{letter-spacing:-0.01em;}.cls-10,.cls-13{font-size:28px;}.cls-10{letter-spacing:-0.02em;}.cls-11,.cls-12,.cls-14{font-size:25px;}.cls-11{letter-spacing:-0.02em;}.cls-12,.cls-14{font-family:Roboto-Medium, Roboto;font-weight:500;}.cls-12{letter-spacing:-0.02em;}.cls-13{letter-spacing:-0.02em;}.cls-14{letter-spacing:-0.02em;}</style></defs><title>Indicator_Beleving_Vis3</title><g id="Laag_2" data-name="Laag 2"><g id="Laag_1-2" data-name="Laag 1"><path class="cls-1" d="M81.76,56.52l1.63-1.37c41.89-35.18,90.86-53,145.54-53h2.13V234.61Z"/><path class="cls-2" d="M228.93,4.25V228.76L84.76,56.78C126.51,21.71,174.43,4.25,228.93,4.25M233.19,0h-4.26a228.1,228.1,0,0,0-78.32,13.37A228.27,228.27,0,0,0,82,53.52l-3.25,2.73,2.73,3.26,144.17,172,7.52,9V0Z"/><path class="cls-3" d="M10.22,287.42c-11.43-42.7-10.74-86.64,2-127S49.55,83.57,83.39,55.15L85,53.78,232.7,230,10.77,289.47Z"/><path class="cls-2" d="M84.76,56.78l144.17,172L12.27,286.87c-23.08-86.24,4.16-172.71,72.49-230.09m.52-6L82,53.52C47.88,82.2,23,118.92,10.18,159.73S-3.37,244.87,8.17,288l1.1,4.11L13.38,291,230,232.87l6.45-1.73L232.19,226,88,54.05l-2.73-3.27Z"/><path class="cls-4" d="M228.93,455.4c-51.53,0-99.43-15.88-138.54-45.92S23.56,337.24,10.22,287.42l-.55-2.06,217.14-58.23V2.13h2.12A226.53,226.53,0,0,1,455.36,228.76,226.53,226.53,0,0,1,228.93,455.4Z"/><path class="cls-2" d="M228.93,4.25c123.88,0,224.3,100.52,224.3,224.51S352.81,453.27,228.93,453.27c-104,0-189.72-65.8-216.66-166.4l216.66-58.11V4.25m0-4.25h-4.25V225.5L11.17,282.76l-4.1,1.1L8.17,288c13.46,50.27,41.44,92.87,80.92,123.2s87.84,46.35,139.84,46.35A228.75,228.75,0,0,0,390.55,67,227.79,227.79,0,0,0,228.93,0Z"/><text class="cls-5" transform="translate(328.19 295.07)">71%</text><text class="cls-5" transform="translate(52.2 196.87)">18%</text><text class="cls-5" transform="translate(139.02 91.6)">11%</text><path class="cls-1" d="M533,260.3a226.64,226.64,0,0,1,192.88-256,237.66,237.66,0,0,1,31.54-2.2h2.12V230.61l-226.24,31.8Z"/><path class="cls-2" d="M757.46,4.25V228.76L535.15,260C517.89,137.22,603.44,23.69,726.22,6.44a236.53,236.53,0,0,1,31.24-2.19M761.71,0h-4.25a238.82,238.82,0,0,0-31.84,2.23A228.57,228.57,0,0,0,530.94,260.6l.59,4.21,4.21-.59L758.05,233l3.66-.51V0Z"/><path class="cls-3" d="M757.46,455.4c-55.68,0-108.73-19.46-149.37-54.8S540.79,315.44,533,260.3l-.29-2.1,226.83-31.89V455.4Z"/><path class="cls-2" d="M757.46,228.76V453.27C643.39,453.27,551,373,535.15,260l222.31-31.25m4.25-4.89-4.84.68L534.56,255.8l-4.21.59.59,4.21a234.53,234.53,0,0,0,25.86,79.28A222.73,222.73,0,0,0,675.35,442.94a234.26,234.26,0,0,0,82.11,14.58h4.25V223.87Z"/><path class="cls-4" d="M755.33,455.4V2.13h2.13A226.63,226.63,0,0,1,917.7,389,225.14,225.14,0,0,1,757.46,455.4Z"/><path class="cls-2" d="M757.46,4.25C881.44,4.25,982,104.77,982,228.76S881.44,453.27,757.46,453.27V4.25m0-4.25h-4.25V457.52h4.25A228.82,228.82,0,0,0,846.5,18a227.32,227.32,0,0,0-89-18Z"/><text class="cls-5" transform="translate(831.85 249.06)">50%</text><text class="cls-5" transform="translate(632.72 341.02)">23%</text><text class="cls-5" transform="translate(625.32 160.85)">27%</text><rect class="cls-6" x="752.29" y="375.43" width="26.74" height="295.72" rx="9.12" transform="translate(1288.95 -242.37) rotate(90)"/><rect class="cls-7" x="223.57" y="375.43" width="26.74" height="295.72" rx="9.12" transform="translate(760.23 286.35) rotate(90)"/><text class="cls-8" transform="translate(671.95 490.12)">382 <tspan class="cls-9" x="38.12" y="0">r</tspan><tspan x="44.66" y="0">espondenten</tspan></text><text class="cls-10" transform="translate(89.08 571.46) scale(0.99 1)">Nederlanders<tspan class="cls-11" x="184.35" y="0"> </tspan><tspan class="cls-12" x="189.17" y="0">zonder </tspan><tspan class="cls-12"><tspan x="0" y="30">migratieachtergrond</tspan></tspan></text><text class="cls-13" transform="translate(617.8 571.46)">Nederlanders <tspan class="cls-14" x="189.75" y="0">met een </tspan><tspan class="cls-14"><tspan x="0" y="30">niet-Westerse </tspan><tspan x="0" y="60">migratieachtergrond</tspan></tspan></text><text class="cls-8" transform="translate(157.61 496.29)">234 <tspan class="cls-9" x="38.12" y="0">r</tspan><tspan x="44.66" y="0">espondenten</tspan></text></g></g></svg>