<?xml version="1.0" encoding="utf-8"?>
<!-- Generator: Adobe Illustrator 24.0.2, SVG Export Plug-In . SVG Version: 6.00 Build 0)  -->
<svg version="1.1" xmlns="http://www.w3.org/2000/svg" xmlns:xlink="http://www.w3.org/1999/xlink" x="0px" y="0px"
	 viewBox="0 0 1920 759.18" style="enable-background:new 0 0 1920 759.18;" xml:space="preserve">
<style type="text/css">
	.st0{fill:none;stroke:#1D1D1B;stroke-width:2.8346;stroke-miterlimit:10;}
	.st1{fill:none;}
	.st2{fill:#1D1D1B;}
	.st3{font-family:'Roboto-Medium';}
	.st4{font-size:19.2891px;}
	.st5{font-family:'Rubik-Bold';}
	.st6{font-size:25px;}
	.st7{fill:#FA3F47;}
	.st8{fill:#0048FF;}
</style>
<g id="Laag_1">
	<g>
		<line class="st0" x1="520.68" y1="223.08" x2="520.68" y2="581.14"/>
		<line class="st0" x1="1430.57" y1="581.14" x2="518.4" y2="581.14"/>
		<g>
			<rect x="466.75" y="532.72" class="st1" width="43.01" height="14.57"/>
			<text transform="matrix(1 0 0 1 466.7455 547.1887)" class="st2 st3 st4">10%</text>
			<rect x="466.75" y="498.28" class="st1" width="43.01" height="14.57"/>
			<text transform="matrix(1 0 0 1 466.7455 512.7482)" class="st2 st3 st4">20%</text>
			<rect x="466.75" y="463.84" class="st1" width="43.01" height="14.57"/>
			<text transform="matrix(1 0 0 1 466.7455 478.3098)" class="st2 st3 st4">30%</text>
			<rect x="466.75" y="429.4" class="st1" width="44.89" height="14.57"/>
			<text transform="matrix(1 0 0 1 466.7455 443.8684)" class="st2 st3 st4">40%</text>
			<rect x="466.75" y="395.02" class="st1" width="44.89" height="14.57"/>
			<text transform="matrix(1 0 0 1 466.745 409.4826)" class="st2 st3 st4">50%</text>
			<rect x="466.75" y="360.63" class="st1" width="44.89" height="14.57"/>
			<text transform="matrix(1 0 0 1 466.7455 375.094)" class="st2 st3 st4">60%</text>
			<rect x="466.75" y="326.24" class="st1" width="44.89" height="14.57"/>
			<text transform="matrix(1 0 0 1 466.7455 340.7072)" class="st2 st3 st4">70%</text>
			<rect x="466.75" y="291.85" class="st1" width="44.89" height="14.57"/>
			<text transform="matrix(1 0 0 1 466.7455 306.3195)" class="st2 st3 st4">80%</text>
			<rect x="466.75" y="257.47" class="st1" width="44.89" height="14.57"/>
			<text transform="matrix(1 0 0 1 466.7455 271.9319)" class="st2 st3 st4">90%</text>
			<rect x="456.2" y="223.08" class="st1" width="53.55" height="14.57"/>
			<text transform="matrix(1 0 0 1 456.201 237.5451)" class="st2 st3 st4">100%</text>
			<rect x="478.53" y="564.33" class="st1" width="31.23" height="14.57"/>
			<text transform="matrix(1 0 0 1 478.5297 578.798)" class="st2 st3 st4">0%</text>
		</g>
		<rect x="558.75" y="609.74" class="st1" width="66.49" height="23.39"/>
		<text transform="matrix(1 0 0 1 558.7468 627.4885)" class="st2 st5 st6">Niets</text>
		<rect x="696.65" y="609.74" class="st1" width="187.47" height="19.81"/>
		<text transform="matrix(1 0 0 1 696.6456 627.4885)" class="st2 st5 st6">Waarschuwing</text>
		<rect x="922.49" y="609.74" class="st1" width="132.55" height="23.39"/>
		<text transform="matrix(1 0 0 1 922.4926 627.4885)" class="st2 st5 st6">Bekeuring</text>
		<rect x="1335.86" y="613.59" class="st1" width="95.2" height="23.39"/>
		<text transform="matrix(1 0 0 1 1335.8622 631.343)" class="st2 st5 st6">Anders</text>
		<rect x="544.88" y="453" class="st7" width="45.02" height="125.9"/>
		<rect x="591.99" y="453" class="st8" width="45.02" height="125.9"/>
		<rect x="743.27" y="471.13" class="st7" width="45.02" height="107.77"/>
		<rect x="790.38" y="475.72" class="st8" width="45.02" height="103.19"/>
		<rect x="941.66" y="498.28" class="st7" width="45.02" height="80.62"/>
		<rect x="988.77" y="485.74" class="st8" width="45.02" height="93.16"/>
		<rect x="1140.05" y="555.56" class="st7" width="45.02" height="23.35"/>
		<rect x="1187.16" y="548.4" class="st8" width="45.02" height="30.51"/>
		<g>
			<g>
				<rect x="591.99" y="434.68" class="st1" width="45.02" height="14.31"/>
				<text transform="matrix(1 0 0 1 594.1312 448.3694)" class="st2 st5 st4">35%</text>
			</g>
		</g>
		<g>
			<g>
				<rect x="544.88" y="434.68" class="st1" width="45.02" height="14.31"/>
				<text transform="matrix(1 0 0 1 547.0243 448.3694)" class="st2 st5 st4">35%</text>
			</g>
		</g>
		<g>
			<g>
				<rect x="743.27" y="452.53" class="st1" width="45.02" height="14.31"/>
				<text transform="matrix(1 0 0 1 745.0863 466.2209)" class="st2 st5 st4">30%</text>
			</g>
		</g>
		<g>
			<g>
				<rect x="790.38" y="457.11" class="st1" width="45.02" height="14.31"/>
				<text transform="matrix(1 0 0 1 792.6561 470.8088)" class="st2 st5 st4">29%</text>
			</g>
		</g>
		<g>
			<g>
				<rect x="941.66" y="480.01" class="st1" width="45.02" height="14.31"/>
				<text transform="matrix(1 0 0 1 943.8502 493.7033)" class="st2 st5 st4">22%</text>
			</g>
		</g>
		<g>
			<g>
				<rect x="988.77" y="467.14" class="st1" width="45.02" height="14.31"/>
				<text transform="matrix(1 0 0 1 990.9967 480.8332)" class="st2 st5 st4">25%</text>
			</g>
		</g>
		<g>
			<g>
				<rect x="1140.05" y="536.95" class="st1" width="45.02" height="14.31"/>
				<text transform="matrix(1 0 0 1 1148.1908 550.6476)" class="st2 st5 st4">4%</text>
			</g>
		</g>
		<g>
			<g>
				<rect x="1187.16" y="529.79" class="st1" width="45.02" height="14.31"/>
				<text transform="matrix(1 0 0 1 1196.3588 543.4894)" class="st2 st5 st4">7%</text>
			</g>
		</g>
		<rect x="1338.44" y="532.21" class="st7" width="45.02" height="46.7"/>
		<rect x="1385.55" y="540.79" class="st8" width="45.02" height="38.12"/>
		<g>
			<g>
				<rect x="1338.44" y="513.6" class="st1" width="45.02" height="14.31"/>
				<text transform="matrix(1 0 0 1 1342.0183 527.3)" class="st2 st5 st4">13%</text>
			</g>
		</g>
		<g>
			<g>
				<rect x="1385.55" y="522.18" class="st1" width="45.02" height="14.31"/>
				<text transform="matrix(1 0 0 1 1390.6873 535.8801)" class="st2 st5 st4">11%</text>
			</g>
		</g>
		<rect x="1120.12" y="610.93" class="st1" width="134.08" height="22.2"/>
		<text transform="matrix(1 0 0 1 1120.118 628.6848)" class="st2 st5 st6">Arrestatie</text>
	</g>
</g>
<g id="Isolation_Mode">
</g>
</svg>
